<?xml version="1.0" encoding="UTF-8" standalone="no"?>
<!-- Created with Inkscape (http://www.inkscape.org/) -->

<svg
   xmlns:dc="http://purl.org/dc/elements/1.1/"
   xmlns:cc="http://creativecommons.org/ns#"
   xmlns:rdf="http://www.w3.org/1999/02/22-rdf-syntax-ns#"
   xmlns:svg="http://www.w3.org/2000/svg"
   xmlns="http://www.w3.org/2000/svg"
   xmlns:sodipodi="http://sodipodi.sourceforge.net/DTD/sodipodi-0.dtd"
   xmlns:inkscape="http://www.inkscape.org/namespaces/inkscape"
   width="210mm"
   height="297mm"
   id="svg2"
   version="1.1"
   inkscape:version="0.48.0 r9654"
   sodipodi:docname="Neues Dokument 1">
  <defs
     id="defs4" />
  <sodipodi:namedview
     id="base"
     pagecolor="#ffffff"
     bordercolor="#666666"
     borderopacity="1.0"
     inkscape:pageopacity="0.0"
     inkscape:pageshadow="2"
     inkscape:zoom="0.35"
     inkscape:cx="350"
     inkscape:cy="520"
     inkscape:document-units="px"
     inkscape:current-layer="layer1"
     showgrid="false"
     inkscape:window-width="1280"
     inkscape:window-height="752"
     inkscape:window-x="0"
     inkscape:window-y="0"
     inkscape:window-maximized="0" />
  <metadata
     id="metadata7">
    <rdf:RDF>
      <cc:Work
         rdf:about="">
        <dc:format>image/svg+xml</dc:format>
        <dc:type
           rdf:resource="http://purl.org/dc/dcmitype/StillImage" />
        <dc:title></dc:title>
      </cc:Work>
    </rdf:RDF>
  </metadata>
  <g
     inkscape:label="Ebene 1"
     inkscape:groupmode="layer"
     id="layer1">
    <g
       id="g3066"
       transform="translate(-1222.8571,-322.85715)">
      <path
         style="fill:#9e9e9e"
         d="m 624.0734,976.45045 c -0.32384,-0.84393 -1.23192,-1.22881 -2.10699,-0.89301 -2.46453,0.94573 -1.79582,-1.01787 1.95244,-5.73312 1.91967,-2.4149 3.49467,-4.84217 3.5,-5.39393 0.005,-0.55176 1.58471,-3.21847 3.50971,-5.92602 1.925,-2.70755 3.50819,-5.40611 3.5182,-5.9968 0.01,-0.59069 1.37604,-3.07807 3.03563,-5.52752 1.73119,-2.55512 4.98198,-10.6543 7.62608,-19 2.53474,-8.00055 6.78448,-20.25484 9.44386,-27.23175 4.59531,-12.05585 4.78689,-12.94901 3.86096,-18 -1.84636,-10.07199 -5.86757,-38.34171 -7.11281,-50.00416 -1.96181,-18.37351 -1.94782,-18.38331 24.61128,-17.23676 8.95336,0.38651 17.34488,0.43518 18.64782,0.10816 1.76772,-0.44368 2.98985,-2.15773 4.81522,-6.75342 1.45905,-3.67342 3.5777,-6.99536 5.25,-8.23174 2.17981,-1.6116 2.80376,-2.88413 2.80376,-5.71818 0,-4.63108 -0.63343,-5.21381 -3.87678,-3.56653 -2.77742,1.41064 -11.12567,0.84947 -14.28492,-0.96022 -0.91393,-0.52352 -6.23816,-5.78487 -11.83161,-11.69188 -11.47362,-12.1168 -15.22381,-15.14323 -17.76517,-14.33663 -0.96792,0.3072 -5.58073,4.91099 -10.25069,10.23063 -12.28564,13.99484 -14.60878,16.02451 -23.49083,20.52345 -4.4,2.22869 -10.925,5.98452 -14.5,8.34629 -3.575,2.36178 -7.85,4.87568 -9.5,5.58645 -1.65,0.71078 -4.26103,2.14916 -5.8023,3.19641 -3.76061,2.55524 -12.52441,5.69342 -15.89966,5.69342 -1.5016,0 -4.3148,0.75565 -6.25156,1.67922 -1.93675,0.92358 -3.70906,1.48608 -3.93846,1.25 -0.22941,-0.23607 -0.57256,-2.00422 -0.76256,-3.92922 -0.33379,-3.38178 -0.21035,-3.52314 3.65454,-4.18511 13.5957,-2.32865 16.54989,-3.4904 39.5,-15.53361 11.12633,-5.83861 13.70883,-7.73242 23.5,-17.23317 17.34058,-16.82623 24.43934,-23.04863 26.28659,-23.04143 1.81689,0.007 7.73287,4.34563 24.19452,17.74332 5.57519,4.5375 10.58317,8.25 11.12883,8.25 0.54566,0 1.66432,-1.6875 2.48591,-3.75 2.69802,-6.77304 3.79822,-8.40242 6.67969,-9.89249 2.21117,-1.14344 2.7769,-2.05983 2.53537,-4.1069 -0.24006,-2.03454 -1.06226,-2.82841 -3.60794,-3.4836 -1.81337,-0.46671 -3.5831,-1.61772 -3.93274,-2.55779 -0.34964,-0.94007 -1.85809,-3.28422 -3.35211,-5.20922 -1.49403,-1.925 -3.89374,-6.97071 -5.3327,-11.21268 -1.43895,-4.24197 -4.53503,-11.89197 -6.88017,-17 -4.14786,-9.0346 -4.27052,-9.60025 -4.50757,-20.78732 -0.13402,-6.325 -0.71827,-14.78982 -1.29832,-18.81071 -0.58005,-4.0209 -0.75003,-9.11372 -0.37772,-11.31739 0.66301,-3.9243 0.54391,-4.13378 -5.79283,-10.18928 -9.87055,-9.43247 -17.94583,-16.58747 -20.85352,-18.47699 -6.04294,-3.92692 -8.47226,-5.81543 -10.15138,-7.89147 -0.97684,-1.20777 -2.66434,-2.47787 -3.75,-2.82244 -2.30874,-0.73277 -2.46592,-2.25817 -0.5001,-4.85354 1.33271,-1.75951 1.77964,-1.54841 8.1328,3.84136 3.69743,3.13676 8.33602,6.73925 10.30799,8.00554 1.97197,1.26629 9.3229,8.12635 16.3354,15.24457 l 12.75,12.94222 0,20.8158 0,20.8158 4.34225,7.59827 c 2.38824,4.17904 6.73742,12.21158 9.66485,17.85008 2.92742,5.6385 5.50134,10.07307 5.71981,9.8546 0.21847,-0.21847 -0.29927,-3.76916 -1.15054,-7.89041 -1.74439,-8.44512 -0.82563,-13.74848 3.41306,-19.70116 1.22581,-1.7215 2.06716,-3.21659 1.86966,-3.32243 -0.1975,-0.10583 -2.10832,-1.09242 -4.24627,-2.19242 -6.49982,-3.34423 -9.70614,-8.9314 -10.68229,-18.6144 -0.62524,-6.20212 -0.50358,-9.0511 0.48405,-11.33497 0.72555,-1.67785 2.54614,-6.87563 4.04575,-11.55063 1.49961,-4.675 3.35951,-9.49667 4.13311,-10.71482 0.77361,-1.21815 1.40656,-2.87275 1.40656,-3.6769 0,-0.80415 -6.04016,-7.19428 -13.42257,-14.20028 -8.09627,-7.68346 -14.09529,-14.23 -15.11785,-16.49763 -1.61381,-3.5788 -1.59543,-4.27959 0.38255,-14.5849 1.14281,-5.95401 2.56162,-13.75047 3.15292,-17.32547 0.59131,-3.575 1.72688,-9.2 2.5235,-12.5 0.79661,-3.3 2.35896,-11.625 3.47187,-18.5 1.11291,-6.875 2.49088,-15.17863 3.06216,-18.45252 1.45148,-8.31818 3.71153,-10.72527 6.02007,-6.41173 1.14955,2.14795 0.3953,8.37472 -2.2114,18.25641 -0.5647,2.14069 -1.39281,5.96569 -1.84026,8.5 -0.44745,2.53431 -1.96154,9.78284 -3.36464,16.10784 -1.40311,6.325 -3.73337,17.03767 -5.17836,23.80592 l -2.62726,12.30593 3.79961,4.69407 c 8.79587,10.8665 25.62019,29.19408 26.79952,29.19408 0.70132,0 2.97388,-1.35 5.05014,-3 4.85587,-3.85896 6.77374,-3.7775 11.77103,0.5 2.24893,1.925 4.61113,3.5 5.24932,3.5 1.61975,0 29.90809,-32.73902 30.29652,-35.06316 0.28114,-1.68214 -1.26812,-9.76546 -6.40856,-33.43684 -3.88297,-17.88085 -4.66458,-21.37039 -5.97812,-26.6896 -0.77275,-3.12928 -1.69374,-8.79635 -2.04665,-12.59349 -0.51784,-5.57175 -0.35805,-7.01271 0.82809,-7.46788 2.48901,-0.95512 3.82002,0.70212 4.6828,5.83058 4.09708,24.35344 8.17492,46.31165 10.10635,54.42039 2.21673,9.30647 4.25847,24.84464 3.61704,27.5265 -0.49068,2.05154 -5.39009,7.4836 -15.80152,17.5194 l -15.09034,14.54591 3.7089,9.37918 c 2.03989,5.15855 4.81166,11.55539 6.15949,14.2152 2.22549,4.3918 2.39103,5.59281 1.80214,13.07491 -0.42327,5.37781 -1.31255,9.34323 -2.56081,11.41897 -2.5753,4.28248 -8.45083,9.31993 -10.87048,9.31993 -2.55827,0 -2.50578,0.27107 0.9859,5.0912 3.98044,5.49483 4.72256,11.24967 2.58491,20.04478 -0.93919,3.86416 -1.47941,7.25395 -1.2005,7.53286 0.27891,0.27892 4.21772,-5.04497 8.75289,-11.83086 4.53518,-6.78589 9.72336,-14.28607 11.52928,-16.66707 2.04574,-2.69718 3.47209,-5.90137 3.78381,-8.5 0.27517,-2.294 1.24791,-11.37091 2.16164,-20.17091 0.91373,-8.8 2.24143,-16.92892 2.95045,-18.06426 0.70901,-1.13534 7.02904,-6.53534 14.0445,-12 11.91723,-9.28286 15.64797,-11.81312 21.13756,-14.33588 1.2076,-0.55496 4.46548,-2.60446 7.23974,-4.55444 5.8888,-4.13914 6.17814,-4.19455 7.85795,-1.50474 1.39981,2.24145 0.84634,3.95932 -1.27562,3.95932 -0.75034,0 -2.6881,1.11394 -4.30613,2.47542 -1.61802,1.36148 -5.6682,3.94898 -9.00038,5.75 -7.9032,4.27162 -19.39866,12.02307 -25.84722,17.42893 -5.08866,4.26584 -5.14077,4.36797 -5.65118,11.0756 -0.28334,3.72353 -1.23936,10.56714 -2.12447,15.20803 -0.88512,4.6409 -1.87975,11.6159 -2.2103,15.5 -0.43343,5.09318 -1.29795,8.14845 -3.10092,10.95894 -1.37496,2.1433 -5.439,9.55932 -9.03119,16.48004 -7.29305,14.05079 -13.49369,22.12179 -16.99592,22.12255 -3.60334,7.9e-4 -2.98516,4.61205 1.12536,8.39451 1.85645,1.70829 4.14367,5.24348 5.08271,7.85598 0.93904,2.6125 2.24791,4.75 2.90861,4.75 0.6607,0 4.78598,-2.98448 9.16729,-6.63218 14.53184,-12.09858 24.23368,-19.36782 25.84915,-19.36782 1.80599,0 7.88686,5.29096 24.87877,21.64704 8.58113,8.26002 13.8545,12.44786 19.5,15.48589 4.25596,2.29027 11.67668,6.34729 16.49049,9.0156 4.81381,2.66831 9.45589,4.85147 10.31574,4.85147 0.85985,0 2.54628,0.52879 3.74762,1.17509 2.19505,1.18089 6.76057,2.35677 14.18426,3.65325 3.85908,0.67395 3.98793,0.82139 3.65731,4.18511 -0.18848,1.9176 -0.50989,3.65796 -0.71424,3.86746 -0.20436,0.2095 -1.91815,-0.353 -3.80844,-1.25 -1.89029,-0.897 -5.02982,-1.63091 -6.97674,-1.63091 -1.94692,0 -3.81797,-0.45 -4.15789,-1 -0.33992,-0.55 -1.386,-1 -2.32462,-1 -0.93862,0 -3.27456,-0.90516 -5.19098,-2.01146 -1.91642,-1.1063 -5.4,-2.89164 -7.74128,-3.96741 -2.34129,-1.07578 -6.84129,-3.70046 -10,-5.83263 -3.15872,-2.13217 -9.91665,-6.02309 -15.01763,-8.64649 -8.69397,-4.47124 -10.01229,-5.59207 -21.06085,-17.90591 -6.70679,-7.47485 -12.68656,-13.26815 -13.87518,-13.44251 -1.54833,-0.22712 -5.64125,3.25627 -15.81688,13.46137 -13.71321,13.75292 -13.73391,13.76842 -19.18557,14.36848 -3.63083,0.39965 -6.30405,0.16155 -7.98659,-0.71136 -1.39097,-0.72164 -2.66304,-1.31208 -2.82683,-1.31208 -0.16379,0 -0.59882,1.78173 -0.96673,3.9594 -0.61032,3.61244 -0.37704,4.2183 2.6621,6.91395 1.83207,1.62501 4.18801,5.13078 5.23541,7.79061 3.19745,8.11972 1.80453,7.6935 23.0885,7.06488 10.45392,-0.30875 20.13213,-0.24252 21.50713,0.14719 5.75247,1.63037 5.64273,5.49965 -1.542,54.37099 l -2.75606,18.74702 4.67475,12.25298 c 2.57111,6.73914 6.69805,18.77798 9.17097,26.75298 2.61896,8.44594 5.6955,16.22406 7.36858,18.62927 1.57979,2.2711 3.20855,5.1961 3.61946,6.5 0.41091,1.3039 2.03347,3.93576 3.6057,5.84857 1.57223,1.91282 2.8586,3.98561 2.8586,4.6062 0,0.6206 1.575,3.19107 3.5,5.71217 3.39698,4.44889 4.60322,7.50365 2.43347,6.16267 -0.5866,-0.36254 -1.64333,0.12966 -2.3483,1.09376 -1.6248,2.22204 -3.25173,1.242 -4.06193,-2.44685 -0.34685,-1.57919 -2.13365,-4.6272 -3.97066,-6.77333 -1.83702,-2.14614 -4.32664,-6.001 -5.5325,-8.56636 -1.20586,-2.56536 -2.82869,-5.19229 -3.60628,-5.83764 -0.77759,-0.64534 -1.4138,-1.73643 -1.4138,-2.42463 0,-0.6882 -1.7729,-5.2456 -3.93978,-10.12756 -2.16689,-4.88195 -4.66632,-12.39391 -5.5543,-16.69325 -0.88798,-4.29934 -4.32676,-14.87434 -7.64172,-23.5 -5.97697,-15.55229 -6.02152,-15.74499 -5.3432,-23.11649 0.37622,-4.08842 1.34207,-9.93842 2.14634,-13 2.76384,-10.52101 7.33266,-33.99282 7.33266,-37.67075 l 0,-3.68169 -9.75,0.67492 c -5.3625,0.3712 -12.89983,1.33553 -16.74963,2.14295 -11.58882,2.43054 -11.74903,2.39639 -22.4078,-4.7767 -1.42591,-0.9596 -3.05641,-1.7471 -3.62333,-1.75 -1.3808,-0.007 -3.76792,6.39518 -2.53742,6.80535 2.81191,0.9373 10.21851,7.70088 12.95174,11.82732 3.67092,5.54207 4.92983,9.72615 6.25405,20.78567 2.39241,19.98077 2.27868,24.20118 -1.05138,39.01599 l -3.13332,13.93959 -6.21368,6.56041 c -7.96728,8.41185 -10.41976,9.99837 -16.5844,10.72848 -9.22852,1.09298 -13.68931,-0.83522 -22.40483,-9.68462 -4.2625,-4.32797 -7.7515,-8.00729 -7.75333,-8.17625 -0.006,-0.55836 -3.81974,-19.20224 -5.0941,-24.90336 -1.00171,-4.48134 -1.00108,-7.36991 0.003,-14.5 0.68974,-4.89711 1.59239,-12.27884 2.0059,-16.40384 1.01342,-10.10967 4.10696,-16.8074 10.48545,-22.70179 2.85576,-2.63902 6.07217,-5.31321 7.1476,-5.94266 1.69552,-0.99239 1.78473,-1.4296 0.67143,-3.29068 -0.70613,-1.18042 -1.01707,-2.57792 -0.69098,-3.10555 1.58385,-2.56272 -6.34524,0.7405 -10.17685,4.23963 -3.05299,2.78807 -8.9492,3.27957 -17.10093,1.4255 -3.87068,-0.88036 -11.63679,-1.90207 -17.25803,-2.27045 l -10.22044,-0.66978 0.68027,5.40789 c 0.86649,6.88823 4.12166,23.10765 6.6844,33.30613 1.09159,4.34403 2.22987,11.54403 2.5295,16 0.53897,8.01544 0.48454,8.25625 -5.10902,22.60176 -3.10958,7.975 -6.49858,18.36491 -7.53109,23.08868 -1.97442,9.03301 -9.74177,28.46711 -13.0674,32.69496 -1.07538,1.36734 -1.95538,3.02173 -1.95538,3.67643 0,0.65469 -2.025,3.79815 -4.5,6.98546 -2.475,3.18731 -4.5,6.55097 -4.5,7.47479 0,1.69307 -1.80941,4.07968 -3.09301,4.07968 -0.38116,0 -0.94912,-0.66741 -1.26215,-1.48314 z m 85.88673,-304.96936 c 1.79049,-2.34746 2.42536,-4.10785 1.9835,-5.5 -1.30876,-4.12355 -3.76144,-1.58162 -5.0376,5.22091 -0.38503,2.05237 -0.44787,3.73159 -0.13965,3.73159 0.30822,0 1.74541,-1.55363 3.19375,-3.4525 z"
         id="path3072"
         inkscape:connector-curvature="0" />
      <path
         style="fill:#6e6e6e"
         d="m 623.95284,973.97288 c -0.32656,-0.52839 0.77188,-2.84591 2.44099,-5.15004 1.6691,-2.30413 3.03473,-4.60183 3.03473,-5.10601 0,-0.50418 1.0903,-2.34916 2.4229,-4.09996 4.98314,-6.54701 11.48973,-20.61004 15.58436,-33.68328 2.32556,-7.425 6.22916,-18.675 8.67466,-25 5.01019,-12.95825 4.97595,-11.96063 1.23531,-36 -1.06979,-6.875 -2.81848,-19.43006 -3.88599,-27.90012 -1.97863,-15.69933 -1.71087,-19.09988 1.50394,-19.09988 1.83255,0 1.83354,0.50763 0.006,3.2962 -1.17122,1.7875 -1.27241,3.53936 -0.51385,8.89576 1.08646,7.67181 5.19963,26.73722 7.50948,34.80804 0.86575,3.025 1.58286,9.1 1.59358,13.5 0.0179,7.34066 -0.44135,9.19505 -5.57198,22.5 -3.0753,7.975 -6.31962,18.08499 -7.2096,22.46665 -1.6815,8.27855 -9.22346,27.2669 -12.47897,31.41821 -1.02863,1.31167 -1.87024,2.95876 -1.87024,3.6602 0,0.70144 -1.81176,3.5674 -4.02614,6.36879 -2.21437,2.8014 -4.45324,6.21681 -4.97525,7.5898 -0.97887,2.57463 -2.43455,3.21803 -3.47433,1.53564 z m 192.709,-1.78929 c -0.52931,-1.5125 -2.59833,-4.70508 -4.59783,-7.09461 -1.9995,-2.38954 -3.63545,-4.87258 -3.63545,-5.51787 0,-0.64529 -1.06475,-2.74021 -2.36612,-4.65539 -3.95252,-5.81678 -11.27247,-24.08576 -12.51924,-31.24524 -0.64585,-3.70874 -3.86086,-13.75034 -7.14446,-22.31466 -7.37252,-19.2291 -7.57449,-22.58473 -2.55807,-42.50227 1.87666,-7.45122 4.22525,-18.35379 5.21909,-24.22793 1.73193,-10.23672 1.73323,-10.80508 0.0314,-13.68614 -1.7359,-2.93864 -1.73004,-3.00589 0.26186,-3.00589 1.29274,0 2.24872,0.84164 2.6154,2.30258 0.62503,2.49032 -1.91512,24.03353 -6.0462,51.27835 l -2.58996,17.08093 4.40967,11.41907 c 2.42532,6.28049 6.70738,18.61907 9.5157,27.41907 2.80831,8.8 6.20405,17.60243 7.54609,19.56096 1.34204,1.95852 3.16021,5.10852 4.04038,7 0.88017,1.89147 2.60925,4.88511 3.84241,6.65253 5.12376,7.34364 7.84126,12.31704 7.25152,13.27127 -1.08189,1.75053 -2.27812,1.11711 -3.27614,-1.73476 z M 715.18623,926.66202 c -4.13293,-1.35664 -4.7892,-1.88616 -12.8357,-10.35655 -4.97553,-5.23763 -5.71182,-6.57398 -6.81659,-12.37188 -0.6812,-3.575 -2.09152,-10.1 -3.13404,-14.5 -1.58125,-6.67373 -1.74031,-9.32627 -0.95941,-16 0.51484,-4.4 1.3913,-11.93646 1.94769,-16.74768 1.59548,-13.79659 5.47893,-21.0559 14.63911,-27.36476 5.79506,-3.99121 6.03245,-4.40402 4.21028,-7.32178 -0.99777,-1.59767 -0.73031,-2.57185 1.64855,-6.00454 3.52979,-5.09349 2.49362,-6.60746 -1.55634,-2.27401 -1.65248,1.76815 -4.44377,3.94249 -6.20287,4.83185 -1.75909,0.88937 -4.54835,2.61756 -6.19835,3.84043 -4.50549,3.33916 -7.85319,3.76527 -16.31388,2.07649 -4.22737,-0.84379 -10.16112,-1.89684 -13.18612,-2.34011 -3.48948,-0.51133 -5.40522,-1.25293 -5.24072,-2.02874 0.1426,-0.67254 -0.5324,-1.54778 -1.5,-1.94498 -0.96761,-0.39719 6.26921,-0.94717 16.08182,-1.22217 l 17.84109,-0.5 2.48955,-6 c 1.36925,-3.3 4.07039,-7.47816 6.00254,-9.2848 2.22572,-2.08115 3.29546,-3.85166 2.91936,-4.83179 -0.3265,-0.85084 -0.59364,-2.91264 -0.59364,-4.58177 0,-2.81806 -0.1964,-2.98352 -2.75,-2.31688 -4.33931,1.13281 -11.50766,1.29004 -14.35219,0.3148 -3.34181,-1.14573 -22.82119,-21.99177 -21.08941,-22.56903 0.97839,-0.32613 1.00419,-0.75141 0.11089,-1.82778 -2.89171,-3.48429 1.44794,-0.74168 10.60769,6.70396 16.53788,13.44307 16.2981,13.28335 17.92057,11.93682 0.79356,-0.6586 2.18698,-3.43784 3.09648,-6.17608 1.19824,-3.60758 2.59647,-5.58295 5.07732,-7.17304 2.94512,-1.88768 3.38559,-2.67555 3.15116,-5.63656 -0.2349,-2.96711 -0.72753,-3.55928 -3.56954,-4.29078 -1.81337,-0.46675 -3.56684,-1.61778 -3.8966,-2.55785 -0.32975,-0.94007 -1.63205,-2.83422 -2.89399,-4.20922 -1.26193,-1.375 -3.69162,-6.325 -5.3993,-11 -1.70768,-4.675 -3.81364,-10.44808 -4.67992,-12.82906 -1.16332,-3.19742 -1.28202,-4.62208 -0.4541,-5.45 1.58791,-1.58791 2.22362,-0.73652 9.17775,12.29157 3.37248,6.31812 6.72117,12.10324 7.44153,12.85581 2.69111,2.81149 3.2431,0.16776 1.37305,-6.57621 -3.12017,-11.25233 -2.24582,-17.14966 3.56423,-24.04005 2.50785,-2.97416 2.58384,-3.29641 0.90154,-3.823 -7.65735,-2.39689 -12.44551,-6.9106 -14.40184,-13.57635 -1.27339,-4.33879 -0.27398,-10.9199 1.55191,-10.21924 1.50131,0.57611 3.01336,-3.01448 1.97617,-4.6927 -0.36614,-0.59241 -1.34942,-0.81475 -2.18507,-0.49408 -1.18472,0.45462 -1.3726,0.0842 -0.85303,-1.68183 0.36648,-1.24567 1.28702,-4.51486 2.04563,-7.26486 1.89074,-6.85398 5.67324,-15.2611 6.21318,-13.80961 0.24355,0.65471 -0.0332,2.90471 -0.61507,5 -1.27142,4.57857 -1.41033,11.63857 -0.21445,10.89948 0.47002,-0.29049 2.77476,-3.01706 5.12163,-6.05905 4.08635,-5.29667 4.22405,-5.70026 3.25174,-9.53085 -0.79994,-3.15153 -0.73673,-3.99997 0.298,-3.99997 0.72232,0 2.06206,-2.25428 2.9772,-5.00952 2.35002,-7.07524 4.49209,-7.92856 8.88227,-3.53838 1.91108,1.91108 4.63116,3.76494 6.04463,4.1197 2.66353,0.66851 3.30134,1.85813 1.56994,2.9282 -1.53656,0.94965 -1.18561,2.50845 0.42556,1.89019 1.81849,-0.69782 3.99815,2.62169 6.50414,9.90548 1.07646,3.12879 3.10765,7.97919 4.51375,10.77868 3.04996,6.07234 3.14091,6.89122 0.69426,6.25141 -1.2339,-0.32267 -2.01058,0.1307 -2.30177,1.34362 -0.70927,2.95435 0.13076,5.08865 2.21762,5.63438 1.51344,0.39577 1.94644,1.38617 1.94644,4.45214 0,6.82729 -7.95425,16.22054 -13.75,16.23751 -1.2375,0.004 -2.25,0.24244 -2.25,0.5307 0,0.28826 1.53388,2.75397 3.40862,5.47936 4.59442,6.67912 5.11541,10.72779 2.62592,20.40649 -2.4255,9.42996 -2.43527,9.59004 -0.58507,9.59004 0.79721,0 3.49721,-2.925 6,-6.5 15.00899,-21.43893 13.81742,-20.01083 14.7018,-17.62012 0.62202,1.68148 -0.41194,4.75789 -4.34021,12.91372 -5.59611,11.61859 -11.39646,19.06002 -16.23711,20.83106 -2.3394,0.85591 -3.14516,1.82227 -3.37195,4.04406 -0.24117,2.36265 0.43777,3.51069 3.56011,6.01987 2.42602,1.9496 4.28902,4.53869 5.01899,6.97513 0.63849,2.13108 1.78572,4.7292 2.54941,5.7736 1.35087,1.84743 1.48048,1.83354 4.77901,-0.51211 1.86476,-1.32608 8.01148,-6.12673 13.65936,-10.66813 5.64788,-4.54139 10.39867,-8.25708 10.55731,-8.25708 0.15863,0 0.19484,1.35185 0.0804,3.00412 -0.1557,2.24891 -1.99268,4.78882 -7.30731,10.10345 -3.90458,3.90463 -7.09928,7.47213 -7.09928,7.92778 0,0.45566 -1.34886,1.78894 -2.99747,2.96285 -3.50552,2.49615 -13.07506,3.59796 -15.90416,1.83116 -3.18102,-1.98658 -5.09837,-0.35176 -5.09837,4.34709 0,3.43884 0.63321,4.908 3.35378,7.78139 1.84457,1.94819 4.13468,5.56716 5.08912,8.04216 0.95444,2.475 2.20034,5.0625 2.76867,5.75 0.7522,0.90993 5.63121,1.25 17.93393,1.25 l 16.90061,0 -1.58188,2.41425 c -1.20888,1.84499 -2.80593,2.56592 -6.77306,3.05747 -2.85514,0.35377 -8.70471,1.3273 -12.99904,2.1634 -8.65627,1.68536 -11.36349,1.21133 -16.93941,-2.96608 -1.78899,-1.3403 -4.23751,-2.73567 -5.44113,-3.10081 -1.20363,-0.36515 -3.55238,-2.21738 -5.21945,-4.11607 -2.91328,-3.31804 -5.09214,-4.41968 -5.09214,-2.5746 0,0.48265 0.70467,1.46238 1.56594,2.17716 0.86126,0.71479 2.24398,2.61081 3.0727,4.21337 1.37772,2.66422 1.35066,3.08815 -0.31594,4.94993 -1.76452,1.97118 -1.76332,2.07202 0.0377,3.15908 9.59614,5.79192 14.89351,12.02333 17.05238,20.0591 1.58037,5.8825 4.60146,28.24522 4.59298,33.9982 -0.003,2.16391 -0.65004,6.43891 -1.43745,9.5 -0.7874,3.06108 -2.19276,8.9334 -3.12302,13.04961 -1.55694,6.88914 -2.20621,8.04168 -8.16842,14.5 -3.56237,3.85879 -7.51197,7.56927 -8.7769,8.24549 -3.46348,1.85158 -12.50194,2.39085 -16.74234,0.99893 z m -5.7225,-27.27081 c 1.79657,-2.16473 -0.0229,-3.68083 -3.93694,-3.28046 -3.06301,0.31332 -3.10932,0.38919 -1.57045,2.57284 1.85272,2.62901 3.71428,2.86819 5.50739,0.70762 z m 0.98749,-51.49996 c 0.60116,-1.12328 0.95449,-3.71078 0.78518,-5.75 -0.55296,-6.65987 -5.8468,-4.99698 -8.24633,2.59033 -1.46648,4.63701 5.16706,7.44621 7.46115,3.15967 z m 13.47734,-28.95766 c 0.33992,-0.55 0.14148,-1 -0.44098,-1 -0.58246,0 -1.05902,0.45 -1.05902,1 0,0.55 0.19844,1 0.44098,1 0.24254,0 0.7191,-0.45 1.05902,-1 z m -6.14436,-31.60958 c 1.98938,-2.73029 3.4872,-10.40048 2.02603,-10.37511 -0.48492,0.008 -1.38372,0.34592 -1.99734,0.75 -1.47476,0.97116 -5.38433,8.73671 -5.38433,10.69485 0,2.40725 3.30288,1.74753 5.35564,-1.06974 z m -2.91234,-10.61293 c 1.75424,-2.50453 2.11563,-8.77749 0.50567,-8.77749 -0.57806,0 -1.70306,1.56055 -2.5,3.46788 -2.67467,6.40139 -1.31182,10.0298 1.99433,5.30961 z m 3,-43 c 2.12394,-3.03236 2.03421,-6.0161 -0.16818,-5.59196 -2.03696,0.39229 -4.32577,4.51889 -3.58177,6.45774 0.75067,1.95621 1.97063,1.67455 3.74995,-0.86578 z m -2.36638,-6.70057 c 3.11035,-3.11034 3.36581,-3.83091 2.07782,-5.86079 -1.17493,-1.85169 -3.98717,-0.44086 -5.69173,2.85539 -3.15218,6.09566 -1.14531,7.76462 3.61391,3.0054 z m -0.70721,-47.32692 c 0.33164,-1.2375 0.59481,-3.15 0.58483,-4.25 -0.0179,-1.97335 -0.0377,-1.97413 -1.48634,-0.0589 -1.60381,2.12042 -1.99956,6.55887 -0.58483,6.55887 0.48585,0 1.15471,-1.0125 1.48634,-2.25 z m 25.3134,0.0625 c -0.31922,-0.79773 -0.55618,-0.56078 -0.60416,0.60417 -0.0434,1.05416 0.19293,1.64479 0.52522,1.3125 0.33229,-0.3323 0.36781,-1.1948 0.0789,-1.91667 z m -168.67456,137.4375 c 0.006,-1.25551 1.63087,-2.24968 5.75,-3.5184 3.1578,-0.97262 6.50239,-1.76012 7.43243,-1.75 0.93004,0.0101 1.9691,-0.4316 2.30902,-0.9816 0.33992,-0.55 1.60398,-1.01184 2.80902,-1.02631 1.20504,-0.0145 5.34098,-1.72952 9.19098,-3.81123 3.85,-2.08171 11.5,-6.18368 17,-9.11548 8.09424,-4.31468 12.00104,-7.27048 20.5,-15.50984 20.00319,-19.39221 26.68339,-24.47647 28.43524,-21.64192 0.62717,1.01478 -1.68115,2.10478 -4.45735,2.10478 -1.11299,0 -5.39247,4.08515 -10.66821,10.18377 -13.35416,15.43706 -15.69048,17.48562 -25.62653,22.47002 -5.05073,2.53369 -11.18188,6.0106 -13.62477,7.72646 -5.78307,4.06198 -15.63386,9.31728 -24.59231,13.11975 -1.94366,0.825 -5.2921,1.5 -7.44098,1.5 -2.14888,0 -4.18517,0.45 -4.52509,1 -0.99274,1.60628 -2.50074,1.15233 -2.49145,-0.75 z m 298.99145,0.73327 c -0.825,-0.52396 -3.3,-0.97385 -5.5,-0.99976 -2.2,-0.0259 -4.87351,-0.70781 -5.94113,-1.51531 -1.06762,-0.80751 -2.74836,-1.4682 -3.73498,-1.4682 -0.98661,0 -3.98787,-1.35 -6.66947,-3 -2.68159,-1.65 -5.31509,-3 -5.85223,-3 -0.53713,0 -3.41236,-1.73235 -6.3894,-3.84968 -2.97703,-2.11732 -10.04193,-6.2176 -15.69977,-9.11173 -8.91621,-4.56087 -11.1815,-6.27192 -17,-12.84069 -14.17393,-16.00161 -18.38895,-20.0814 -21.06742,-20.39155 -2.77938,-0.32184 -3.3017,-2.08679 -0.77392,-2.61513 1.62929,-0.34055 7.33558,4.56829 24.62832,21.18658 10.73814,10.31933 12.57908,11.63108 27.7884,19.80044 15.49071,8.32049 19.11771,9.89726 27.2116,11.82969 5.02872,1.20061 10.54009,3.36448 10.86824,4.26707 0.62041,1.70647 -0.4008,2.64023 -1.86824,1.70827 z M 761.96271,718.18359 c 0.78961,-1.84706 1.16878,-4.58582 4.012,-28.97888 l 1.77505,-15.22889 4.5894,-3.84151 c 10.18795,-8.52772 22.84306,-17.90984 27.0894,-20.08326 2.475,-1.26679 6.82626,-3.83645 9.66947,-5.71036 5.84749,-3.85397 6.33053,-3.99949 6.33053,-1.9071 0,0.825 -0.60526,1.5 -1.34501,1.5 -0.73976,0 -2.20226,0.95164 -3.25,2.11476 -1.04775,1.16312 -2.80499,2.52426 -3.90499,3.02474 -6.95423,3.16409 -23.30381,13.94813 -31.25,20.61222 -4.69722,3.93933 -5.25,4.81707 -5.25,8.33619 0,2.1633 -0.86948,7.866 -1.93218,12.67268 -1.0627,4.80667 -2.50151,13.35191 -3.19736,18.98941 -0.93241,7.55405 -1.63593,10.25 -2.67481,10.25 -0.96084,0 -1.17144,-0.55716 -0.6615,-1.75 z m -77.28415,-0.97024 c -1.43481,-0.51243 -1.69034,-3.88958 -0.35667,-4.71383 0.49133,-0.30366 1.18823,0.62288 1.54866,2.05898 0.7389,2.94398 0.58394,3.28911 -1.19199,2.65485 z m -1.64583,-17.39362 c -0.36517,-6.26238 -0.92686,-15.7494 -1.2482,-21.08227 l -0.58426,-9.69614 -7.13585,-6.58926 c -13.20561,-12.19409 -17.12354,-15.62973 -19.76057,-17.32807 -6.59559,-4.24779 -14.87529,-11.27399 -14.87529,-12.62325 0,-3.24366 14.10525,7.84279 31.08582,24.43285 l 13.81777,13.5 0.68437,18.59548 c 0.43686,11.87027 0.32195,19.24309 -0.31774,20.38614 -0.73899,1.3205 -1.17643,-1.19891 -1.66605,-9.59548 z m 26.97878,-42.75193 c -0.43077,-0.697 -0.51316,-1.53733 -0.18309,-1.86741 0.89497,-0.89496 1.87077,0.4213 1.38739,1.87145 -0.33872,1.01617 -0.57427,1.01538 -1.2043,-0.004 z m -18.49612,-15.1767 c -12.11503,-11.23855 -15.60067,-16.27658 -14.41038,-20.82825 0.76859,-2.93909 1.35597,-2.68676 5.0088,2.15166 1.7519,2.32049 7.52081,9.16908 12.81982,15.21908 10.92034,12.46801 12.32527,14.5 10.02537,14.5 -0.84696,0 -6.89658,-4.96912 -13.44361,-11.04249 z m 46.91722,10.29249 c 0.005,-0.93462 5.76999,-7.98169 17.74595,-21.69264 5.0875,-5.82454 9.26368,-11.14522 9.28041,-11.82372 0.0167,-0.6785 0.50984,-0.40904 1.09582,0.5988 1.43506,2.46819 0.34497,7.64241 -2.38812,11.33542 -3.25193,4.3941 -22.86638,22.33214 -24.4192,22.33214 -0.7254,0 -1.31709,-0.3375 -1.31486,-0.75 z m -58.9605,-41.33333 c 0.024,-1.32917 0.47574,-4.44167 1.00397,-6.91667 0.52823,-2.475 1.41255,-7.2 1.96516,-10.5 0.55261,-3.3 1.65022,-8.925 2.43914,-12.5 0.78892,-3.575 1.92824,-9.65 2.53181,-13.5 0.60358,-3.85 1.75795,-9.925 2.56529,-13.5 0.80733,-3.575 1.4641,-7.4757 1.45948,-8.66821 -0.0113,-2.92992 0.9865,-5.33179 2.21509,-5.33179 1.31044,0 0.0881,11.72704 -1.8672,17.91384 -0.79719,2.52239 -1.86832,7.06116 -2.38029,10.08616 -0.84091,4.96857 -1.97277,10.47805 -7.49847,36.5 -1.80514,8.5009 -2.50478,10.34533 -2.43398,6.41667 z m 82.65081,-8.20557 c -0.94423,-4.5161 -2.38673,-11.2486 -3.20557,-14.9611 -0.81883,-3.7125 -2.19045,-10.0125 -3.04803,-14 -0.85758,-3.9875 -1.99228,-9.05 -2.52155,-11.25 -1.15223,-4.78944 -3.13448,-16.20046 -3.30056,-19 -0.16676,-2.81092 1.82163,-3.07808 2.15545,-0.28961 0.15076,1.25929 0.93233,5.21461 1.73683,8.78961 0.8045,3.575 2.15984,10.775 3.01187,16 0.85203,5.225 2.40839,13.55 3.45859,18.5 2.40602,11.34055 4.34343,23.50851 3.82554,24.0264 -0.21769,0.21769 -1.16835,-3.29919 -2.11257,-7.8153 z"
         id="path3070"
         inkscape:connector-curvature="0" />
      <path
         style="fill:#353535"
         d="m 630.42856,963.74357 c 0,-0.825 0.9,-2.31449 2,-3.30998 1.64001,-1.48419 2,-1.53998 2,-0.30998 0,0.825 -0.9,2.31449 -2,3.30998 -1.64001,1.48419 -2,1.53998 -2,0.30998 z m 180.55237,-0.75212 c -2.61788,-2.89272 -1.45654,-4.96203 1.26013,-2.24536 2.23302,2.23302 2.85962,4.1875 1.34249,4.1875 -0.46476,0 -1.63594,-0.87396 -2.60262,-1.94214 z M 637.42856,951.93359 c 0.5887,-1.1 1.52037,-2 2.07037,-2 0.64321,0 0.6181,0.71358 -0.0704,2 -0.5887,1.1 -1.52037,2 -2.07037,2 -0.64321,0 -0.6181,-0.71358 0.0704,-2 z m 168.18333,0.78333 c -1.40079,-1.40079 -1.545,-2.78333 -0.29032,-2.78333 0.91646,0 2.42476,3.01556 1.81386,3.62646 -0.18711,0.18711 -0.8727,-0.19229 -1.52354,-0.84313 z M 644.86518,937.23815 c 0.35783,-0.93249 1.38784,-3.94941 2.28891,-6.70426 0.90106,-2.75485 1.79829,-4.52883 1.99384,-3.94219 0.40074,1.20222 -3.56904,12.34189 -4.39821,12.34189 -0.29432,0 -0.24237,-0.76295 0.11546,-1.69544 z m 152.69043,-2.0225 c -1.70758,-4.15935 -3.16634,-9.65424 -2.34619,-8.83769 0.86047,0.85671 4.2184,10.8897 3.78853,11.31958 -0.1651,0.1651 -0.81415,-0.95175 -1.44234,-2.48189 z m -83.8138,-9.5885 c -1.75272,-0.65646 -6.16048,-4.43244 -9.79503,-8.39106 -6.51666,-7.09771 -6.63428,-7.32647 -8.48403,-16.5 -1.03166,-5.11638 -2.3614,-10.87453 -2.95497,-12.7959 -1.45492,-4.70951 -1.36105,-9.57276 0.46642,-24.16486 2.8203,-22.51972 6.28082,-28.90062 20.05226,-36.97463 4.34616,-2.54809 9.0271,-4.97124 10.4021,-5.38478 1.375,-0.41354 2.8061,-1.22949 3.18022,-1.81323 1.15259,-1.79835 -1.11761,-4.6691 -3.69235,-4.6691 -1.50106,0 -3.07283,-0.96314 -4.07983,-2.5 -2.17735,-3.32305 -3.06081,-3.17304 -7.36166,1.25 -4.49041,4.61799 -14.34528,10.28152 -19.04638,10.94585 -1.925,0.27202 -6.26496,-0.22326 -9.64434,-1.10063 -3.37939,-0.87737 -7.54189,-1.59522 -9.25,-1.59522 -3.29454,0 -3.866,-0.83966 -1.90566,-2.8 0.79829,-0.79829 5.16617,-1.2 13.04775,-1.2 11.35309,0 11.94448,-0.10438 14.16467,-2.5 1.27431,-1.375 2.81626,-2.5 3.42657,-2.5 0.61031,0 1.76653,-1.27027 2.56939,-2.82283 0.80286,-1.55256 2.15946,-3.40355 3.01467,-4.11331 2.41669,-2.00568 0.71865,-3.38672 -1.98554,-1.61487 -2.07094,1.35693 -2.30295,1.36393 -1.80041,0.0543 0.31728,-0.82679 0.89388,-1.50329 1.28133,-1.50329 1.92975,0 5.08157,-4.36588 5.08157,-7.03896 0,-4.16822 1.18412,-3.70034 4.81457,1.90239 5.57424,8.60253 7.32378,8.91693 11.93543,2.14486 2.90687,-4.26865 2.84219,-7.78871 -0.25,-13.60431 -1.375,-2.58602 -2.5,-5.66984 -2.5,-6.85292 0,-2.65278 -1.7866,-4.55106 -4.28333,-4.55106 -3.09076,0 -1.43438,-2.10988 2.81833,-3.58995 2.18075,-0.75897 4.13638,-1.38671 4.34584,-1.39499 0.20947,-0.008 0.11008,1.65348 -0.22086,3.6928 -0.49571,3.05474 -0.0501,4.56752 2.53003,8.58824 4.00882,6.24721 5.12848,4.67707 3.86129,-5.41482 -0.50716,-4.03909 -0.82687,-7.43905 -0.71045,-7.55546 0.11642,-0.11642 1.66235,0.70683 3.43541,1.82945 3.2813,2.07758 4.4507,4.25279 1.72374,3.20636 -0.825,-0.31659 -1.5,-0.0974 -1.5,0.48697 0,1.29803 4.99096,8.79202 5.02224,7.54095 0.0122,-0.48925 0.87432,0.21928 1.91576,1.57451 1.73043,2.25182 2.11135,2.34749 4.4223,1.1107 1.39082,-0.74434 6.04123,-4.21358 10.33423,-7.70942 7.94752,-6.47174 13.58596,-8.62648 11.27524,-4.30885 -0.60533,1.13106 -1.64631,2.26589 -2.31328,2.52183 -0.66697,0.25594 -3.21132,2.97005 -5.65411,6.03136 -4.85169,6.08014 -9.0412,8.83016 -12.01459,7.88645 -1.05173,-0.33381 -2.7961,-0.13391 -3.87636,0.44423 -1.48387,0.79415 -2.67447,0.64348 -4.86936,-0.61621 -4.5255,-2.59728 -6.24207,-1.29524 -6.24207,4.73469 0,4.43903 0.39983,5.47246 3,7.75407 1.65,1.44785 3,3.052 3,3.56476 0,0.51277 -0.82293,0.18756 -1.82874,-0.72268 -2.22287,-2.01167 -3.17126,-2.09903 -3.17126,-0.29214 0,0.74958 2.71076,4.12458 6.02391,7.5 l 6.02391,6.13715 12.04752,0 c 9.38581,0 12.37955,0.33204 13.55039,1.50287 1.76929,1.76929 2.28464,1.56598 -9.77752,3.85738 -11.7441,2.23098 -12.6745,2.14074 -18.91455,-1.83465 -2.99951,-1.91093 -5.9638,-3.48593 -6.5873,-3.5 -0.6235,-0.0141 -2.79243,-1.86168 -4.81984,-4.10579 -2.38963,-2.64503 -4.22928,-3.87179 -5.23017,-3.48771 -1.38094,0.52992 -1.37283,0.82877 0.0767,2.83019 5.33283,7.363 5.0942,6.64278 3.2406,9.78067 l -1.70213,2.88148 3.78422,1.95304 c 4.75676,2.45498 10.47173,8.41532 13.06171,13.62252 2.20231,4.42778 4.78811,19.88836 5.77016,34.5 0.57397,8.53981 0.32582,10.74536 -2.4551,21.82148 l -3.09359,12.32148 -6.70394,7.40197 c -3.68716,4.07108 -8.02908,7.86392 -9.6487,8.42852 -3.89179,1.35669 -12.35049,1.21173 -16.33307,-0.27989 z m -1.93194,-24.12684 c 1.44028,-1.8883 2.61869,-3.63371 2.61869,-3.87868 0,-0.94615 -5.68517,-2.71681 -9.46143,-2.94679 -5.07232,-0.3089 -5.76359,1.96388 -2.07015,6.80624 3.32284,4.35646 5.60098,4.36138 8.91289,0.0192 z m 0.54611,-52.20158 c 3.31225,-4.21084 2.23063,-13.32304 -1.76337,-14.85568 -2.15852,-0.8283 -6.22373,2.40855 -8.8976,7.08456 -4.06195,7.10345 -2.44936,10.18579 5.41097,10.34259 2.28816,0.0457 3.75747,-0.67402 5.25,-2.57147 z m -51.32429,34.41265 c -0.27386,-1.80278 -0.71713,-7.10279 -0.98504,-11.77779 -0.26791,-4.675 -0.81805,-9.36132 -1.22254,-10.41404 -0.47409,-1.23389 -0.36339,-1.68412 0.31152,-1.267 2.57701,1.59268 5.66467,24.71522 3.48059,26.06506 -0.66961,0.41384 -1.27769,-0.58634 -1.58453,-2.60623 z m 120.39687,-4.77595 c 0,-8.44066 1.50518,-16.57799 3.26798,-17.66746 0.65855,-0.407 0.78897,0.39921 0.36674,2.267 -0.3604,1.59424 -0.94187,7.30049 -1.29217,12.68056 -0.35029,5.38007 -1.02067,10.01913 -1.48972,10.30902 -0.46906,0.28989 -0.85283,-3.12521 -0.85283,-7.58912 z m -202.75,-64.25184 c 0.22917,-0.6875 1.24167,-1.25 2.25,-1.25 1.00833,0 2.02083,0.5625 2.25,1.25 0.26389,0.79167 -0.56111,1.25 -2.25,1.25 -1.68889,0 -2.51389,-0.45833 -2.25,-1.25 z m 282.24563,0.24294 c -1.10654,-1.79042 2.5932,-2.33268 4.2962,-0.62968 1.51566,1.51565 1.44031,1.63674 -1.01853,1.63674 -1.4604,0 -2.93535,-0.45318 -3.27767,-1.00706 z m -272.99563,-2.99294 c 0.33992,-0.55 1.26648,-1 2.05902,-1 0.79254,0 1.44098,0.45 1.44098,1 0,0.55 -0.92656,1 -2.05902,1 -1.13246,0 -1.7809,-0.45 -1.44098,-1 z m 265,0 c -0.33992,-0.55 0.28197,-1 1.38197,-1 1.1,0 2.27811,0.45 2.61803,1 0.33992,0.55 -0.28197,1 -1.38197,1 -1.1,0 -2.27811,-0.45 -2.61803,-1 z m -250.5,-6.39301 c 0,-0.21616 0.69837,-0.661 1.55194,-0.98855 0.88992,-0.34149 1.29132,-0.17385 0.94098,0.39301 -0.58726,0.95021 -2.49292,1.40545 -2.49292,0.59554 z m 29,-17.72068 c 1.925,-1.66783 4.83122,-3.99692 6.45828,-5.17576 l 2.95827,-2.14335 -1.52939,2.18352 c -1.94488,2.7767 -8.81091,8.26211 -10.27466,8.20864 -0.61188,-0.0224 0.4625,-1.40523 2.3875,-3.07305 z m 66.68926,1.9996 c -0.9959,-0.5793 -2.46231,-0.80324 -3.25868,-0.49764 -2.76407,1.06067 -5.97166,-1.20985 -13.65573,-9.66632 -6.49616,-7.14917 -7.4218,-8.58101 -5.81841,-9.00031 1.32324,-0.34603 4.91134,1.91354 11.72515,7.38383 5.40012,4.33535 10.26841,7.87095 10.81841,7.85689 2.00414,-0.0512 10.5,-9.38737 10.5,-11.5385 0,-0.36142 -0.98144,-0.40047 -2.18098,-0.0868 -2.03951,0.53334 -2.00905,0.3984 0.4697,-2.08034 1.45787,-1.45787 2.80747,-2.44954 2.99911,-2.20371 0.19164,0.24583 0.15763,4.15949 -0.0756,8.69701 l -0.42402,8.25005 -4.52124,1.99995 c -2.48667,1.09998 -4.57652,1.98628 -4.64411,1.96955 -0.0676,-0.0167 -0.93771,-0.50438 -1.93362,-1.08368 z m 110.65749,-3.28759 c -2.66571,-2.42092 -4.62175,-4.62463 -4.34675,-4.89712 0.275,-0.2725 2.975,1.70329 6,4.39064 3.025,2.68735 4.98104,4.89106 4.34675,4.89713 -0.63429,0.006 -3.33429,-1.96973 -6,-4.39065 z m -77.58987,-20.59832 c -0.40126,-1.375 -0.73572,-4.47821 -0.74323,-6.89602 l -0.0137,-4.39603 -2.45225,2.64603 c -1.3798,1.48882 -3.53523,2.64602 -4.92857,2.64602 -2.60721,0 -5.61918,-2.32143 -5.61918,-4.33088 0,-0.65342 -0.84599,-1.71636 -1.87999,-2.3621 -1.71949,-1.07384 -1.93478,-0.76101 -2.52182,3.66435 l -0.64184,4.83842 -3.22818,-1.05651 c -1.77549,-0.58108 -3.79067,-1.19916 -4.47817,-1.37351 -0.6875,-0.17435 -1.25,-1.10172 -1.25,-2.06082 0,-0.9591 -1.14201,-2.66072 -2.53779,-3.78139 -1.64826,-1.32337 -3.74639,-5.36742 -5.98589,-11.53756 -1.89646,-5.225 -3.45445,-10.04838 -3.46221,-10.71862 -0.0376,-3.2493 3.39067,0.86921 8.51557,10.23001 3.11653,5.69243 6.31433,10.59851 7.10622,10.90239 2.40752,0.92385 2.78814,-2.39203 1.03137,-8.985 -1.76768,-6.63388 -2.21484,-14.97233 -0.84821,-15.81695 0.45048,-0.27841 0.64229,0.70753 0.42626,2.19098 -0.53928,3.70308 1.54637,9.15228 2.75468,7.19719 0.69676,-1.12738 1.09711,-0.87479 1.8809,1.18675 1.44822,3.80911 2.82645,4.24897 7.17264,2.28911 3.60719,-1.62662 4.05534,-1.63454 6.37795,-0.11271 3.83,2.50952 4.56851,2.02536 4.56851,-2.99507 0,-4.02754 -0.47239,-5.07745 -3.62033,-8.04634 -1.99118,-1.87792 -3.40359,-3.63115 -3.13869,-3.89605 1.00183,-1.00184 6.11092,1.73869 9.03084,4.84417 l 3.03713,3.23014 -0.5372,-4.08513 c -0.72206,-5.49082 -4.50122,-11.00521 -8.77175,-12.79936 -1.925,-0.80874 -6.81555,-1.70634 -10.86789,-1.99467 -8.01893,-0.57057 -11.27746,-2.34903 -10.40646,-5.67973 0.39271,-1.5017 -0.31207,-2.28819 -3.09096,-3.44928 -3.82521,-1.59828 -5.03898,-4.07897 -4.46277,-9.121 0.27842,-2.43628 0.77977,-2.87638 3.3121,-2.90753 2.79533,-0.0344 3.0831,-0.41377 4.55094,-6 2.55017,-9.70526 3.99921,-11.20619 3.30103,-3.41922 -0.49068,5.47272 -0.23546,7.23265 1.55896,10.75 4.04395,7.9268 5.4068,5.2301 6.99513,-13.84143 0.62033,-7.44841 0.8423,-15.62598 0.49328,-18.17239 -0.49934,-3.64308 -0.16254,-5.60496 1.58023,-9.20505 1.21815,-2.51637 2.39053,-4.57521 2.60529,-4.57521 0.82148,0 4.59142,8.33686 6.40514,14.16436 1.04247,3.34944 2.98942,7.27019 4.32655,8.71277 2.41837,2.60906 7.69943,15.16953 7.69943,18.31229 0,3.16639 1.23282,4.81058 3.60699,4.81058 2.15727,0 2.39301,0.42853 2.39301,4.34996 0,3.25669 -0.76217,5.4021 -3.03254,8.53627 -3.02386,4.17431 -5.00879,5.44941 -10.21746,6.56361 -3.50402,0.74956 -3.46264,1.97447 0.20792,6.15502 4.96045,5.64964 5.608,10.24275 2.98137,21.14718 -1.68572,6.99823 -1.96322,9.62403 -1.10754,10.47971 1.58926,1.58926 4.6255,-1.44885 11.24156,-11.24844 4.77742,-7.07623 7.46019,-9.78314 8.58304,-8.66029 0.83834,0.83834 -8.62867,19.51721 -10.80171,21.31229 -1.29505,1.0698 -2.85003,2.827 -3.4555,3.90489 -0.60548,1.07789 -2.26005,2.09901 -3.67682,2.26916 -3.2,0.38431 -4.4469,1.83517 -4.89061,5.69064 -0.34157,2.96795 -0.35305,2.9733 -1.07483,0.5 z m -5.73213,-12.5651 c 1.39667,-3.67352 1.20962,-5.40773 -0.66067,-6.12543 -3.34315,-1.28289 -8.38866,4.75106 -6.18901,7.40147 1.8871,2.27382 5.77543,1.54946 6.84968,-1.27604 z m 0.1645,-76.56705 -0.97507,-4.36785 -0.10709,5.45 c -0.0768,3.90917 0.19886,5.14405 0.97506,4.36785 0.74948,-0.74948 0.78241,-2.42491 0.1071,-5.45 z m 41.99804,9.63215 c -0.007,-1.65 0.33837,-5.25 0.7667,-8 l 0.77878,-5 0.0339,5.5 c 0.0187,3.025 -0.32636,6.625 -0.76671,8 -0.77943,2.43376 -0.80096,2.42051 -0.81271,-0.5 z m -84.83788,-8.5 c 0,-4.675 0.17226,-6.5875 0.3828,-4.25 0.21053,2.3375 0.21053,6.1625 0,8.5 -0.21054,2.3375 -0.3828,0.425 -0.3828,-4.25 z m 59.65059,6.52763 c 0,-1.99567 1.68405,-2.79336 2.33207,-1.10465 0.29791,0.77633 -0.10494,1.65962 -0.89521,1.96288 -0.83036,0.31863 -1.43686,-0.0436 -1.43686,-0.85823 z m -43,-0.58665 c 0,-0.58246 0.45,-0.7809 1,-0.44098 0.55,0.33992 1,0.81648 1,1.05902 0,0.24254 -0.45,0.44098 -1,0.44098 -0.55,0 -1,-0.47656 -1,-1.05902 z m 108,-36.75952 c 0,-1.20855 1.8972,-2.61759 2.5907,-1.9241 0.2517,0.2517 -0.22824,1.02686 -1.06653,1.72258 -0.95039,0.78875 -1.52417,0.86462 -1.52417,0.20152 z m -162,-9.74048 c 0,-0.85746 0.45,-1.2809 1,-0.94098 0.55,0.33992 1,1.04148 1,1.55902 0,0.51754 -0.45,0.94098 -1,0.94098 -0.55,0 -1,-0.70156 -1,-1.55902 z m 44.08157,-79.13196 c -0.0449,-1.75504 0.39837,-3.48761 0.98496,-3.85014 1.86835,-1.1547 2.078,0.20794 0.56538,3.67479 l -1.46876,3.36633 -0.0816,-3.19098 z m 63.68208,0.69098 c -1.13327,-3.84765 -0.97299,-6.60934 0.30919,-5.32716 0.59007,0.59007 0.92757,2.59257 0.75,4.45 -0.30393,3.17934 -0.36597,3.23072 -1.05919,0.87716 z"
         id="path3068"
         inkscape:connector-curvature="0" />
    </g>
    <g
       id="g3136"
       transform="translate(-99.999999,2.8571429)">
      <path
         style="fill:#8f8f8f"
         d="m 1384.6749,719.55548 c 0,-15.77531 0.067,-15.38833 -2.6502,-15.38833 -1.6544,0 -2.5741,-1.75863 -3.2072,-6.13263 -0.7202,-4.97562 -0.3087,-6.02623 2.9701,-7.58212 l 2.0345,-0.96546 -2.7178,-1.1994 c -1.4947,-0.65971 -2.8763,-1.61258 -3.07,-2.11753 -1.0201,-2.65825 0.1214,-5.00789 3.1255,-6.43344 2.385,-1.13173 2.4048,-1.71344 0.073,-2.15083 -5.888,-1.10462 -6.2656,-6.306 -0.6522,-8.9863 2.0999,-1.00269 1.8879,-1.71216 -0.704,-2.35578 -2.4901,-0.61839 -3.5356,-1.55411 -4.0107,-3.58982 -0.4289,-1.8377 1.6974,-4.51833 3.9821,-5.0201 1.0706,-0.23518 1.5992,-0.6801 1.5992,-1.34621 0,-0.74281 -0.7479,-1.21236 -2.9516,-1.85297 -3.115,-0.90554 -4.0105,-2.15239 -3.2553,-4.532 0.375,-1.18143 3.4103,-3.29305 4.7336,-3.29305 0.4511,0 0.9582,-0.35938 1.1268,-0.79865 0.3405,-0.8873 -1.1314,-1.89096 -2.7731,-1.89096 -0.5713,0 -1.6765,-0.50172 -2.456,-1.11489 -2.6949,-2.11979 -1.3283,-5.56545 2.7747,-6.99572 2.4313,-0.84756 2.3197,-2.41654 -0.2056,-2.89028 -4.6317,-0.86892 -6.492,-3.2371 -7.0219,-8.93901 -0.2186,-2.35159 -0.5853,-3.72866 -0.9929,-3.72866 -0.3554,0 -1.0246,-0.42361 -1.487,-0.94136 -0.9724,-1.08869 -1.5967,-19.87399 -2.5609,-77.05731 -1.026,-60.84318 -1.6205,-87.86823 -2.1658,-98.4397 -0.7126,-13.81765 -2.0781,-32.27413 -2.4855,-33.59415 -0.53,-1.71754 -2.0679,-36.97891 -2.2709,-52.0699 -0.051,-3.76598 -0.2515,-4.86697 -1.0047,-5.50801 -0.5178,-0.44066 -2.981,-2.64945 -5.4737,-4.90842 -5.2678,-4.77364 -8.7357,-7.09365 -14.9718,-10.01601 -3.3161,-1.55396 -4.4514,-2.34363 -4.3245,-3.00785 0.1502,-0.78562 1.3052,-0.93503 9.0418,-1.16964 4.8783,-0.14792 9.2327,-0.51102 9.6765,-0.80688 0.4438,-0.29586 5.0431,-0.65895 10.2205,-0.80688 l 9.4137,-0.26896 0,-11.29636 c 0,-6.213 -0.2186,-40.52622 -0.4858,-76.2516 -0.4657,-62.28105 -0.4457,-64.99949 0.4869,-66.02991 0.5349,-0.59107 1.4048,-1.07467 1.9332,-1.07467 0.5284,0 1.1107,-0.24258 1.2939,-0.53907 0.1833,-0.29649 0.4352,-4.23004 0.5599,-8.74123 0.3434,-12.42433 1.2962,-27.71557 1.9525,-31.3328 0.322,-1.77514 0.9376,-3.79497 1.368,-4.48852 0.8117,-1.30806 0.551,-3.84926 -0.3948,-3.84926 -1.0725,0 -0.4843,-1.6566 0.7951,-2.23953 1.0489,-0.47793 1.5895,-0.42791 2.6113,0.24161 1.0532,0.69011 1.3522,1.46541 1.6368,4.2452 0.4128,4.03069 3.0449,36.0994 3.4293,41.78096 0.2602,3.84697 0.3138,3.97247 1.997,4.67574 0.9513,0.39747 2.0033,1.05247 2.3378,1.45556 0.4396,0.52965 0.7747,21.60963 1.2084,76.01254 0.3301,41.40381 0.7036,75.80934 0.8301,76.45673 0.2239,1.14579 0.498,1.18618 10.3142,1.51955 5.5462,0.18836 13.9534,0.38487 18.6826,0.43669 7.5056,0.0822 8.6203,0.2067 8.7698,0.97914 0.1234,0.6375 -1.2525,1.63446 -4.9209,3.56573 -5.8747,3.09269 -11.9532,7.51319 -15.4589,11.24227 -1.3425,1.42803 -2.9086,2.86471 -3.4802,3.19263 -0.9936,0.57004 -1.0539,1.62209 -1.3729,23.95497 -0.1903,13.32373 -0.5992,24.96891 -0.9518,27.10676 -0.34,2.0614 -1.0371,9.07343 -1.5491,15.58229 -0.8331,10.59088 -0.9327,21.7532 -0.9479,106.23956 l -0.017,94.40529 -1.7196,0.80688 c -1.6476,0.77312 -1.7208,0.94196 -1.748,4.03441 -0.022,2.45503 -0.3456,3.74254 -1.3537,5.37922 -0.9285,1.50756 -1.3261,2.9325 -1.328,4.75996 0,2.22238 -0.2499,2.83917 -1.6734,4.1689 l -1.6707,1.56062 1.6707,1.56062 c 2.2581,2.10935 2.3653,5.45528 0.2459,7.66754 l -1.4248,1.48714 1.6937,1.58218 c 2.2513,2.10306 2.3584,5.11946 0.2698,7.60159 l -1.4239,1.69225 1.6929,1.5462 c 1.4296,1.3057 1.6929,1.93147 1.6929,4.02291 0,1.98165 -0.282,2.73797 -1.4108,3.78412 l -1.4108,1.30742 1.6798,1.91311 c 2.2221,2.53093 2.363,5.88756 0.3272,7.80003 l -1.3524,1.27057 1.7559,1.81006 1.7559,1.81005 0.1761,7.55813 c 0.1603,6.88179 0.082,7.66145 -0.8727,8.71293 -0.9665,1.06423 -1.0726,2.2732 -1.3533,15.41388 -0.1674,7.84247 -0.4663,14.6808 -0.6641,15.19629 -0.31,0.80786 -1.1315,0.93723 -5.9503,0.93723 l -5.5907,0 0,-14.7353 z m -5.7641,-308.50425 c 1.6517,-2.79608 0.7835,-5.24866 -1.0179,-2.87558 -0.7698,1.01398 -1.022,4.43786 -0.3269,4.43786 0.2321,0 0.8372,-0.70303 1.3448,-1.56228 z m 1.4604,-103.198 c -2e-4,-12.94375 -0.1611,-43.68993 -0.3576,-68.32485 l -0.3573,-44.79076 -1.794,-1.84729 c -0.9868,-1.01602 -1.7941,-2.23668 -1.7941,-2.71259 0,-0.48306 -0.2569,-0.70656 -0.5814,-0.50595 -0.4053,0.25046 -0.4886,4.53927 -0.2749,14.1522 0.1686,7.58607 0.439,38.12036 0.6008,67.85399 0.1619,29.73363 0.4345,55.33199 0.6058,56.88524 0.3077,2.78924 0.3341,2.82409 2.1323,2.82409 l 1.8208,0 -4e-4,-23.53408 z m 8.4115,-18.28935 c -0.755,-89.722 -1.0159,-109.0835 -1.4767,-109.57468 -0.999,-1.06495 -1.6773,0.63906 -1.3078,3.28563 0.2001,1.43254 0.3358,3.93597 0.3016,5.56319 -0.3644,17.36444 0.4031,138.77827 0.89,140.80104 0.1603,0.66568 0.6624,1.21033 1.1158,1.21033 0.7366,0 0.7874,-4.40369 0.4771,-41.28551 z m -10.7666,-105.09449 c 1.0973,-1.14759 1.3168,-1.84848 1.1795,-3.76545 -0.1649,-2.30112 -0.2122,-2.3554 -2.0516,-2.3554 l -1.8827,0 -0.1587,4.25583 c -0.1827,4.90119 0.2366,6.74531 1.0503,4.61988 0.2832,-0.73964 1.1216,-1.97933 1.8632,-2.75486 z"
         id="path3142"
         inkscape:connector-curvature="0" />
      <path
         style="fill:#6a6a6a"
         d="m 1384.8752,733.46894 c 0.1817,-0.47348 0.4807,-6.71547 0.6645,-13.87102 0.3725,-14.50656 0.16,-15.9632 -2.3307,-15.97692 -2.2523,-0.0124 -2.7747,-0.58978 -3.3691,-3.72403 -0.9501,-5.00983 -0.7381,-6.81859 0.9351,-7.97787 0.8136,-0.56369 1.9029,-1.17778 2.4207,-1.36454 1.4447,-0.5212 1.1176,-1.92576 -0.538,-2.30984 -2.8952,-0.6717 -3.8999,-1.69037 -3.8999,-3.95405 0,-2.16245 1.3894,-3.84485 3.8098,-4.61306 1.9556,-0.62065 1.2178,-2.23194 -1.314,-2.86943 -2.5811,-0.64992 -3.3153,-1.28709 -3.8255,-3.31984 -0.3816,-1.52028 0.9362,-3.05163 3.7504,-4.35824 2.5761,-1.19607 2.1407,-2.68171 -1.0225,-3.48864 -1.4499,-0.36988 -2.8381,-0.99085 -3.0848,-1.37993 -1.3919,-2.19494 0.3623,-5.30036 3.399,-6.01736 1.42,-0.33528 2.4236,-1.99311 1.8089,-2.98783 -0.1725,-0.27908 -1.6545,-0.89726 -3.2933,-1.37364 -2.965,-0.86196 -2.9789,-0.87584 -2.8142,-2.82436 0.1474,-1.74308 0.4497,-2.0994 2.7535,-3.24506 1.4234,-0.70786 2.7336,-1.66638 2.9115,-2.13007 0.3949,-1.02904 -1.1987,-2.30123 -2.8827,-2.30123 -0.6665,0 -1.8673,-0.56369 -2.6682,-1.2526 -2.1838,-1.87848 -1.5118,-3.72624 1.9295,-5.30494 4.3301,-1.98646 4.0438,-3.68311 -0.8252,-4.89108 -1.7375,-0.43105 -2.8343,-1.04837 -3.2115,-1.80757 -0.3151,-0.63413 -0.8776,-1.52008 -1.25,-1.96879 -0.4363,-0.52562 -0.6201,-2.0943 -0.517,-4.40982 l 0.1602,-3.59399 8.3378,-0.26423 c 10.1431,-0.32144 10.156,-0.32852 9.8833,-5.43831 -0.106,-1.98711 -0.343,-4.27458 -0.5267,-5.08325 -0.1836,-0.80868 -0.1507,-1.89797 0.073,-2.42065 0.4357,-1.01696 0.3593,-39.34209 -0.08,-40.0526 -0.1439,-0.23284 -0.2267,-4.48056 -0.1841,-9.43936 0.043,-4.95881 0.065,-9.37911 0.049,-9.8229 -0.016,-0.44378 -0.1526,-10.22883 -0.304,-21.74456 -0.1578,-12.00309 -0.4918,-21.15427 -0.7828,-21.44525 -0.3182,-0.31816 -2.2342,0.0543 -5.1343,0.99803 -3.1944,1.03953 -4.7994,1.33293 -5.1845,0.9478 -0.3127,-0.3127 -0.6718,-4.22737 -0.8172,-8.90862 l -0.2595,-8.35079 1.4127,-1.67882 c 1.3309,-1.58171 1.3494,-1.6788 0.3207,-1.6788 -1.4659,0 -1.5198,-0.14585 -1.9267,-5.22003 -0.4591,-5.72407 0.066,-6.37262 5.2781,-6.51622 1.996,-0.055 4.0981,0.15103 4.6714,0.45784 0.9264,0.49582 1.0535,0.36141 1.1437,-1.20935 0.056,-0.97194 0.1772,-2.85646 0.2698,-4.18782 0.093,-1.33135 0.149,-2.78374 0.1254,-3.22753 -0.024,-0.44378 -0.2077,-6.05376 -0.409,-12.4666 -0.2013,-6.41284 -0.5495,-11.84316 -0.7737,-12.06737 -0.7392,-0.73919 -1.4181,0.56691 -1.5705,3.02142 -0.082,1.32898 -0.5851,3.14252 -1.1168,4.03009 l -0.9667,1.61377 -0.01,-2.68961 c 0,-1.47929 -0.1357,-7.88052 -0.2907,-14.22495 -0.2351,-9.62534 -0.4212,-11.63731 -1.124,-12.15121 -0.7605,-0.55606 -0.7566,-0.64875 0.04,-0.95446 1.4693,-0.56383 0.9956,-1.30723 -1.0813,-1.69686 -1.1219,-0.21046 -2.6784,-1.08513 -3.631,-2.04038 l -1.6673,-1.67199 1.7674,-0.46048 c 0.9875,-0.25728 1.6174,-0.70321 1.4275,-1.01052 -0.187,-0.30253 -0.094,-1.20111 0.2061,-1.99687 1.5581,-4.12864 1.1444,-6.07303 -1.0464,-4.91831 -0.7033,0.37069 -1.4566,0.94033 -1.674,1.26586 -0.2555,0.38266 -0.3939,0.30667 -0.3914,-0.21501 0,-1.09565 1.5729,-2.95269 3.1989,-3.78891 l 1.3364,-0.68728 -2.4122,-1.05657 c -1.3268,-0.58111 -3.1385,-1.22391 -4.0261,-1.42843 -1.3381,-0.30835 -1.5964,-0.61843 -1.5125,-1.81559 0.1399,-1.99441 -0.6466,-1.81308 -1.2491,0.28801 -0.6713,2.34054 -3.7767,3.6352 -6.3078,2.62973 -0.929,-0.36901 -2.0521,-0.73678 -2.4959,-0.81727 -0.5893,-0.10688 -0.8494,-1.01557 -0.9647,-3.36978 -0.1498,-3.05909 -0.095,-3.22113 1.0758,-3.17822 0.8872,0.0325 1.282,-0.29473 1.4056,-1.1651 0.1396,-0.98301 -0.085,-1.21033 -1.1965,-1.21033 -2.6513,0 -2.8594,-1.35433 -3.141,-20.44103 -0.1418,-9.61535 -0.4418,-17.91502 -0.6665,-18.44372 -0.2247,-0.52869 -1.1035,-1.32065 -1.953,-1.75993 -0.8494,-0.43927 -3.1293,-2.3603 -5.0664,-4.26897 -3.674,-3.62015 -10.031,-7.85629 -15.0495,-10.0286 -4.9011,-2.1215 -3.9983,-2.53908 6.0565,-2.80137 4.9557,-0.12927 13.3515,-0.47717 18.6574,-0.77313 11.3777,-0.63461 11.051,-0.44192 11.0864,-6.54012 0.013,-2.23635 0.1121,-5.51847 0.2204,-7.29361 0.1082,-1.77515 0.2444,-6.19452 0.3028,-9.82083 0.1948,-12.11114 0.9854,-7.31856 1.1618,7.04236 0.1871,15.23387 0.3215,15.95755 2.965,15.95755 0.7229,0 1.8191,-0.27017 2.4361,-0.60037 l 1.1218,-0.60038 -0.3675,-58.97447 c -0.202,-32.43596 -0.5069,-63.33164 -0.6774,-68.65706 l -0.3099,-9.6826 -1.5339,-1.3448 c -0.9434,-0.82711 -1.6685,-2.11938 -1.8835,-3.3569 -0.3144,-1.81009 -0.1546,-2.20702 1.5921,-3.95372 1.7464,-1.74637 1.9417,-2.23109 1.9417,-4.81969 0,-2.17644 -0.2284,-3.00586 -0.9369,-3.40235 -0.5153,-0.28837 -0.7955,-0.66574 -0.6226,-0.83862 0.6271,-0.62705 6.9597,-0.49841 7.6128,0.15465 0.5109,0.5109 0.4065,0.71636 -0.482,0.94871 -1.7875,0.46745 -2.0972,4.37803 -0.6792,8.57596 1.089,3.22407 1.0964,3.42036 0.1998,5.3099 -0.8742,1.84206 -0.9065,6.06518 -0.5296,69.04678 0.2209,36.89658 0.5584,68.05296 0.7501,69.23639 0.3004,1.85451 0.5564,2.17563 1.8539,2.32504 2.5524,0.2939 2.9183,-0.50693 3.3464,-7.32383 0.2175,-3.46367 0.3963,-7.57549 0.3974,-9.1374 0,-1.56191 0.2095,-2.96807 0.4631,-3.1248 0.2536,-0.15673 0.4611,3.91919 0.4611,9.0576 0,6.66419 0.1927,9.58513 0.6724,10.18867 0.7868,0.99014 12.7244,1.73557 28.2411,1.76348 6.0648,0.0109 9.2794,0.21081 9.2792,0.57704 -2e-4,0.30819 -1.3922,1.23877 -3.0933,2.06796 -4.9813,2.42796 -11.414,6.9607 -15.4856,10.91162 -2.0821,2.02046 -4.2607,3.94182 -4.8413,4.26969 -1.0124,0.57176 -1.0619,1.36276 -1.2106,19.35883 -0.091,11.07215 -0.367,18.97477 -0.6724,19.28009 -0.2845,0.28456 -0.5173,2.90346 -0.5173,5.81978 0,2.91632 -0.2399,6.31733 -0.5331,7.5578 -0.2932,1.24048 -0.9471,7.58084 -1.4531,14.08969 -0.8117,10.44016 -0.9361,22.98724 -1.0556,106.50853 l -0.1356,94.67425 -1.6388,0.67394 c -1.6055,0.66019 -1.6389,0.75051 -1.6389,4.42486 0,2.80177 -0.2717,4.19657 -1.0738,5.51215 -0.6804,1.1159 -1.0746,2.71264 -1.0759,4.35775 0,2.16633 -0.2694,2.86387 -1.6158,4.21025 -0.8875,0.88758 -1.6137,1.86116 -1.6137,2.16347 0,0.30231 0.7262,1.22808 1.6137,2.05718 2.1224,1.98256 2.238,4.85211 0.269,6.6769 -1.7216,1.59553 -1.6918,2.03802 0.269,3.9988 2.1779,2.17794 2.1446,4.28191 -0.1084,6.84796 l -1.7221,1.96137 1.7073,1.41936 c 1.2296,1.02222 1.8042,2.04836 2.0537,3.66734 0.3014,1.95604 0.1636,2.43076 -1.061,3.65545 -1.7617,1.76164 -1.7632,2.37923 -0.01,3.7775 1.0149,0.80925 1.4709,1.77251 1.6648,3.51666 0.231,2.07757 0.079,2.57837 -1.1288,3.70623 -1.7773,1.66035 -1.7537,2.23372 0.1619,3.94055 1.4944,1.33152 1.5737,1.64217 1.9479,7.63026 0.4336,6.93989 0.1606,9.2784 -1.1995,10.27285 -0.8132,0.59468 -0.9357,2.16062 -1.078,13.77494 -0.088,7.20724 -0.2507,14.07231 -0.3608,15.25574 l -0.2002,2.15169 -5.5089,0.154 c -4.8671,0.1361 -5.4705,0.0538 -5.1786,-0.70688 z m 4.3463,-240.3025 c -0.014,-3.91963 -0.105,-9.18415 -0.2018,-11.69894 -0.1582,-4.1091 -0.2164,-4.32709 -0.5748,-2.15168 -0.2194,1.33135 -0.2801,3.77241 -0.1351,5.42456 0.1609,1.83158 0.01,3.48112 -0.3905,4.22665 -0.4733,0.88426 -0.4917,1.38542 -0.067,1.81048 0.7707,0.77062 0.7604,6.43991 -0.013,7.21333 -0.4425,0.44252 -0.4071,0.81985 0.1345,1.43193 0.4044,0.45709 0.8563,0.8399 1.0042,0.85068 0.148,0.0108 0.2574,-3.18737 0.2432,-7.10701 z m -4.5466,4.43872 c 0,-0.29586 -0.1067,-0.53792 -0.2372,-0.53792 -0.1304,0 -0.3868,0.24206 -0.5696,0.53792 -0.1829,0.29586 -0.076,0.53792 0.2372,0.53792 0.3133,0 0.5696,-0.24206 0.5696,-0.53792 z m 3.2276,-59.97829 c 0,-0.44378 -0.095,-0.80688 -0.2114,-0.80688 -0.1163,0 -0.3508,0.3631 -0.5211,0.80688 -0.1703,0.44379 -0.075,0.80689 0.2114,0.80689 0.2866,0 0.5211,-0.3631 0.5211,-0.80689 z m -0.019,-23.90216 c 0.3063,-0.57226 0.5569,-2.26671 0.5569,-3.76545 0,-2.50528 -0.1024,-2.72497 -1.2701,-2.72497 -1.1661,0 -1.2949,0.27374 -1.5733,3.3443 -0.1668,1.83937 -0.1862,3.53382 -0.043,3.76545 0.4788,0.77478 1.7667,0.4324 2.3295,-0.61933 z m -11.5463,-19.14183 c 1.5285,-0.31737 1.8636,-2.09619 0.4939,-2.62181 -1.3233,-0.5078 -6.581,-0.38404 -6.919,0.16286 -0.4983,0.80625 0.3116,2.26005 1.5241,2.73582 1.0749,0.42179 1.7082,0.38601 4.901,-0.27687 z m 8.3936,-207.51796 c -0.6904,-0.69042 -1.3906,-0.15681 -0.8794,0.67024 0.198,0.32036 0.6064,0.43018 0.9076,0.24403 0.3674,-0.22707 0.3581,-0.52795 -0.028,-0.91427 z m -4.8972,-0.37859 c 0,-0.29586 -0.242,-0.53792 -0.5379,-0.53792 -0.2958,0 -0.5379,0.24206 -0.5379,0.53792 0,0.29586 0.2421,0.53792 0.5379,0.53792 0.2959,0 0.5379,-0.24206 0.5379,-0.53792 z m 2.2743,404.49606 c -1.6031,-0.64386 -2.0399,-1.903 -1.2028,-3.46718 0.5023,-0.93853 0.6056,-3.7155 0.4011,-10.78277 -0.2553,-8.82128 -0.2011,-9.59308 0.7398,-10.53391 0.7405,-0.74051 0.8124,-1.01522 0.2658,-1.01522 -1.5341,0 -2.0564,-5.16196 -0.5796,-5.72868 0.7332,-0.28137 0.7309,-0.38282 -0.022,-0.93307 -1.1382,-0.83223 -1.2845,-14.75513 -0.1626,-15.46659 1.075,-0.68169 4.0015,-0.54985 4.6179,0.20803 0.5397,0.66372 0.4596,3.27541 -0.2077,6.76779 -0.2074,1.08565 -0.066,2.30912 0.3597,3.10391 0.5395,1.0079 0.5551,1.45898 0.067,1.94655 -0.349,0.34905 -0.6346,1.1771 -0.6346,1.84011 0,0.66301 -0.2835,1.38066 -0.6299,1.59477 -0.4136,0.25564 -0.2079,0.5454 0.5993,0.84399 0.9573,0.35414 1.1513,0.72115 0.8775,1.65966 -0.1934,0.66273 -0.4574,1.67133 -0.5867,2.24132 -0.1293,0.57 -0.4759,1.27727 -0.7704,1.57171 -0.3552,0.35521 -0.1332,0.73474 0.6598,1.1278 1.3282,0.65837 1.8932,3.16782 0.9651,4.28618 -0.3711,0.44705 -0.5452,4.1451 -0.4881,10.36472 0.049,5.31833 -0.087,9.95325 -0.3007,10.29983 -0.4552,0.73653 -2.2327,0.76835 -3.9688,0.0711 z m 9.3524,-283.59812 c -0.7243,-8.30188 -0.881,-14.50336 -1.152,-45.58888 -0.1586,-18.19521 -0.3921,-37.0169 -0.5189,-41.82598 -0.1268,-4.80908 -0.2606,-16.0651 -0.2973,-25.01337 -0.054,-13.23964 0.067,-16.26958 0.6511,-16.26958 0.5831,0 0.7827,4.6447 1.0633,24.74441 0.4413,31.61761 0.9501,107.31541 0.7213,107.31541 -0.096,0 -0.3062,-1.51291 -0.4675,-3.36201 z m -16.9634,-6.63437 c 0.026,-0.62665 0.1533,-0.75412 0.325,-0.325 0.1554,0.38831 0.1363,0.85227 -0.043,1.03102 -0.1787,0.17875 -0.3058,-0.13897 -0.2825,-0.70602 z m -0.1215,-4.12407 c -0.1124,-0.66568 -0.054,-2.17859 0.1299,-3.36201 0.295,-1.89802 0.3434,-1.75533 0.4107,1.21032 0.077,3.4008 -0.1661,4.36913 -0.5406,2.15169 z m 0.1839,-11.43084 c 0.011,-0.88757 0.1315,-1.18555 0.2679,-0.66217 0.1364,0.52338 0.1274,1.24958 -0.02,1.61377 -0.1474,0.36419 -0.2589,-0.064 -0.248,-0.9516 z m -0.6087,-10.51637 c 0.032,-1.74379 0.066,-1.77726 0.5543,-0.55432 0.3445,0.86182 0.333,1.48877 -0.034,1.85583 -0.3805,0.38048 -0.5436,-0.0277 -0.5202,-1.30151 z m 0.1849,-12.34531 c 0,-4.88164 0.082,-6.87868 0.1812,-4.43786 0.1,2.44082 0.1,6.43489 0,8.87572 -0.1,2.44082 -0.1812,0.44378 -0.1812,-4.43786 z m -0.1341,-11.83428 c 0,-0.73964 0.1221,-1.04222 0.2714,-0.6724 0.1492,0.36982 0.1492,0.97498 0,1.3448 -0.1493,0.36982 -0.2714,0.0672 -0.2714,-0.6724 z m 0.1471,-15.8687 c 3e-4,-7.10056 0.077,-9.93094 0.1701,-6.28973 0.093,3.64122 0.093,9.45077 -6e-4,12.91013 -0.094,3.45935 -0.1699,0.48017 -0.1695,-6.6204 z m -0.071,-17.48246 c 0,-1.62721 0.1008,-2.29289 0.2241,-1.47928 0.1232,0.81361 0.1232,2.14496 0,2.95857 -0.1233,0.81361 -0.2241,0.14793 -0.2241,-1.47929 z m -0.5635,-14.25493 c 0.01,-1.18342 0.1162,-1.60421 0.2448,-0.93509 0.1287,0.66913 0.1238,1.63739 -0.011,2.15169 -0.1347,0.5143 -0.2399,-0.0332 -0.234,-1.2166 z m -0.051,-7.26194 c 0,-0.73964 0.1221,-1.04222 0.2713,-0.6724 0.1493,0.36982 0.1493,0.97498 0,1.3448 -0.1492,0.36982 -0.2713,0.0672 -0.2713,-0.6724 z m 0.1163,-8.33779 c 0,-3.25443 0.09,-4.51643 0.1969,-2.80445 0.1071,1.71198 0.1061,4.37469 0,5.91714 -0.1083,1.54245 -0.1959,0.14174 -0.1946,-3.11269 z m -0.1163,-7.79987 c 0,-0.73964 0.1221,-1.04222 0.2713,-0.6724 0.1493,0.36982 0.1493,0.97499 0,1.34481 -0.1492,0.36982 -0.2713,0.0672 -0.2713,-0.67241 z m 9.1646,-44.37855 c 0.011,-0.88757 0.1315,-1.18554 0.2679,-0.66216 0.1364,0.52338 0.1274,1.24957 -0.02,1.61376 -0.1474,0.36419 -0.2589,-0.064 -0.248,-0.9516 z m -1.93,-7.03698 c -0.5123,-1.335 -0.3894,-1.83873 0.4486,-1.83873 1.0184,0 1.4601,0.77023 1.0518,1.83418 -0.4193,1.09264 -1.0821,1.09465 -1.5004,0.005 z"
         id="path3140"
         inkscape:connector-curvature="0" />
      <path
         style="fill:#323232"
         d="m 1385.4167,733.34941 c 0.5083,-1.7313 0.907,-24.03262 0.4833,-27.03057 -0.4161,-2.94394 -0.4281,-2.95938 -2.4338,-3.12543 -2.4716,-0.20463 -2.9334,-0.97267 -3.4158,-5.68094 -0.4105,-4.00704 0.1002,-5.04985 3.077,-6.28288 2.3768,-0.9845 1.8844,-2.57153 -1.1421,-3.68143 -2.2343,-0.81936 -2.4337,-1.04658 -2.5911,-2.95141 -0.1746,-2.11441 0.3896,-2.84308 3.3935,-4.38299 0.6108,-0.31312 1.0804,-1.09456 1.0804,-1.79784 0,-1.01533 -0.4945,-1.40796 -2.6896,-2.13582 -2.6124,-0.86616 -2.6897,-0.95175 -2.6897,-2.9796 0,-1.82835 0.2301,-2.21124 1.851,-3.08052 2.6368,-1.41409 3.4234,-2.34281 3.0312,-3.57847 -0.2392,-0.75385 -0.9719,-1.15191 -2.497,-1.35643 -2.8671,-0.38456 -3.8225,-1.25454 -3.623,-3.29896 0.1332,-1.36487 0.5801,-1.8603 2.5164,-2.78967 4.2534,-2.04162 4.1424,-4.17481 -0.2901,-5.57738 -2.3498,-0.74357 -2.6022,-0.98004 -2.6022,-2.43722 0,-1.37375 0.36,-1.79467 2.4206,-2.83033 4.264,-2.14297 4.1561,-4.3371 -0.2681,-5.45114 -2.0232,-0.50946 -3.4973,-1.75648 -3.4973,-2.95857 0,-0.61721 2.5189,-2.6023 4.2039,-3.313 1.5648,-0.65997 1.7625,-0.96525 1.6138,-2.49177 -0.1588,-1.62966 -0.3596,-1.78586 -3.1752,-2.47012 -2.7561,-0.66979 -3.0875,-0.91579 -3.9901,-2.96153 -0.5414,-1.22708 -1.0956,-3.38916 -1.2316,-4.80463 l -0.2473,-2.57357 10.7596,0 c 5.9178,0 11.5161,-0.15129 12.4407,-0.3362 l 1.681,-0.33621 0,3.02776 c 0,2.00005 -0.3652,3.7091 -1.0759,5.03506 -0.6268,1.16954 -1.0758,3.035 -1.0758,4.46974 0,2.03387 -0.2809,2.73155 -1.6138,4.00854 -2.0296,1.94448 -2.0296,2.89203 0,4.67298 2.1064,1.8483 2.2195,4.52199 0.269,6.35442 -1.7594,1.65287 -1.6968,2.67912 0.2689,4.40402 1.1321,0.99338 1.6138,1.90672 1.6138,3.05981 0,1.10091 -0.5329,2.18891 -1.6138,3.29461 -2.0992,2.14743 -2.0355,2.95803 0.3299,4.2024 0.7873,0.41415 1.2324,1.3071 1.4479,2.90462 0.2636,1.95492 0.1108,2.51613 -1.0023,3.68084 -1.6741,1.75174 -1.6608,2.94781 0.05,4.43425 2.0726,1.80128 2.3133,4.60305 0.5731,6.67114 -1.7926,2.13044 -1.7591,2.73754 0.2439,4.42576 l 1.6421,1.38396 0.1062,7.43613 c 0.098,6.88131 0.026,7.49508 -0.9697,8.22638 -1.017,0.74696 -1.0864,1.53184 -1.2693,14.34966 -0.1064,7.45775 -0.2196,14.40673 -0.2515,15.44223 l -0.058,1.88273 -3.1608,0.13942 -3.1609,0.13949 0.3862,-7.49637 c 0.3471,-6.73516 -0.039,-17.14621 -0.6138,-16.57101 -0.124,0.12394 -0.4634,5.20321 -0.7542,11.28721 -0.2908,6.08401 -0.6762,11.44623 -0.8565,11.916 -0.4586,1.19504 -1.9751,1.1136 -1.6226,-0.0871 z m -2.6391,-143.97274 c -1.0314,-0.75422 -1.0317,-0.78238 -0.018,-1.90269 0.789,-0.87175 0.8815,-1.28482 0.3963,-1.76993 -0.8614,-0.86144 -0.7956,-4.00897 0.1495,-7.14933 0.6921,-2.29971 0.6886,-2.6678 -0.03,-3.19356 -1.0872,-0.79501 -0.8761,-6.96185 0.2151,-6.28271 1.3736,0.85484 2.2118,20.42743 0.894,20.87407 -0.3078,0.10434 -1.0308,-0.15479 -1.6066,-0.57585 z m -0.132,-26.89826 c -0.661,-1.45071 -0.3994,-1.93639 1.0432,-1.93639 0.7371,0 0.9861,0.40752 0.9861,1.61376 0,1.96686 -1.1937,2.15664 -2.0293,0.32263 z m -0.4115,-5.29154 c -0.5016,-1.30719 -0.01,-12.95536 0.5581,-13.13337 1.6711,-0.52676 2.2964,1.70859 1.6465,5.88551 -0.1744,1.12098 -0.091,2.46001 0.1846,2.97561 0.7266,1.35769 -0.071,4.62599 -1.1817,4.83982 -0.5069,0.0976 -1.0503,-0.15779 -1.2075,-0.56757 z m -2.9561,-53.53009 c -0.01,-0.81361 -0.1429,-4.28612 -0.2959,-7.71669 l -0.2782,-6.2374 1.9098,-2.28596 c 2.135,-2.55538 2.0661,-3.25962 -0.3187,-3.25962 -1.0096,0 -1.5467,-0.24048 -1.4156,-0.63383 0.1331,-0.39918 1.5791,-0.64811 3.9059,-0.6724 3.6601,-0.0382 3.6988,-0.0235 4.1384,1.57519 1.0045,3.65289 -1.0374,6.08432 -3.8468,4.58075 -1.8806,-1.00644 -2.7865,0.17946 -2.596,3.39802 0.1958,3.30647 1.2328,3.88762 1.7019,0.95381 0.2367,-1.48022 0.6719,-2.24125 1.4169,-2.4777 2.5639,-0.81376 4.0683,0.96057 3.6724,4.33156 -0.2922,2.488 -1.4356,2.20801 -1.6232,-0.39748 -0.2004,-2.78228 -1.6716,-3.31294 -1.9584,-0.70636 -0.098,0.88757 -0.665,2.13772 -1.2609,2.7781 -1.0429,1.12094 -1.0463,1.18372 -0.091,1.68461 0.5456,0.28614 1.7807,0.68961 2.7447,0.89659 1.8543,0.39815 3.0079,1.80337 2.3519,2.8649 -0.4002,0.64752 -6.1035,2.8032 -7.4164,2.8032 -0.4255,0 -0.73,-0.60839 -0.7404,-1.47929 z m 4.3912,-1.24784 c 0.8586,-0.45952 0.9466,-0.73042 0.4367,-1.3448 -0.8518,-1.02639 -2.4633,-0.9781 -2.8716,0.0861 -0.6498,1.69338 0.5062,2.29098 2.4349,1.25875 z m 1.5437,-16.3691 c 0,-0.83677 -0.3049,-1.3448 -0.8069,-1.3448 -0.5021,0 -0.8069,0.50803 -0.8069,1.3448 0,0.83677 0.3048,1.3448 0.8069,1.3448 0.502,0 0.8069,-0.50803 0.8069,-1.3448 z m -6.7768,-5.32265 c -0.1583,-0.41267 -0.2113,-1.68351 -0.1176,-2.82409 l 0.1703,-2.07378 3.2276,-0.37069 c 4.7947,-0.55068 5.1946,-0.3234 5.0023,2.84308 -0.1817,2.99206 -1.0979,3.57225 -1.5058,0.95355 -0.3882,-2.49161 -1.5083,-2.58237 -1.7138,-0.13885 -0.2302,2.73739 -1.3969,3.0101 -1.6138,0.37723 -0.2316,-2.8113 -1.7176,-2.83671 -1.9496,-0.0333 -0.1669,2.01599 -0.9562,2.68286 -1.4996,1.26689 z m 0.8596,-64.88439 c -0.7172,-0.47083 -0.7172,-0.58854 0,-1.05937 1.2875,-0.84517 2.1517,-0.63243 2.1517,0.52969 0,1.16211 -0.8642,1.37485 -2.1517,0.52968 z m 1.7371,-2.77325 c -0.802,-0.80198 -0.812,-1.05526 -0.1144,-2.89014 0.4372,-1.14991 0.6972,-1.31348 1.2969,-0.81578 1.2529,1.03981 1.5435,-0.34585 0.3276,-1.5618 -0.6025,-0.60251 -1.0955,-1.33753 -1.0955,-1.63339 0,-0.73893 2.3326,-0.67973 3.0908,0.0785 0.7729,0.77287 0.2729,3.73982 -0.7716,4.57876 -0.4264,0.34254 -0.6991,1.05996 -0.6059,1.59427 0.2023,1.15973 -1.1921,1.58542 -2.1279,0.64963 z m 8.4834,-14.43201 c 0,-0.29586 0.2421,-0.53792 0.538,-0.53792 0.2958,0 0.5379,0.24206 0.5379,0.53792 0,0.29586 -0.2421,0.53792 -0.5379,0.53792 -0.2959,0 -0.538,-0.24206 -0.538,-0.53792 z m 8.6068,-0.80688 c 0,-0.44379 0.2421,-0.80689 0.5379,-0.80689 0.2959,0 0.5379,0.3631 0.5379,0.80689 0,0.44378 -0.242,0.80688 -0.5379,0.80688 -0.2958,0 -0.5379,-0.3631 -0.5379,-0.80688 z m -33.349,-7.17142 c -3.2202,-0.30554 -3.2262,-0.32673 -3.2668,-11.58723 -0.02,-5.65903 -0.2201,-13.89867 -0.4438,-18.31033 -0.3995,-7.87869 -0.4327,-8.04116 -1.8657,-9.14468 -0.8025,-0.6179 -3.4258,-2.8839 -5.8295,-5.03554 -2.4038,-2.15163 -6.8752,-5.51817 -9.9364,-7.48118 -3.0612,-1.96302 -5.4242,-3.71076 -5.2511,-3.88387 0.1731,-0.17312 6.5779,-0.31652 14.2329,-0.31868 10.4129,-0.003 14.0875,-0.17327 14.5906,-0.67633 0.3698,-0.36982 1.342,-0.67241 2.1603,-0.67241 0.8184,0 2.3395,-0.40607 3.3803,-0.90239 1.6167,-0.77094 2.0869,-0.79831 3.2274,-0.18789 0.7343,0.39298 1.2081,0.92009 1.0528,1.17135 -0.1553,0.25127 0.4724,0.45686 1.3949,0.45686 0.9812,0 1.5393,-0.22324 1.3448,-0.53793 -0.1829,-0.29585 -0.084,-0.53792 0.2185,-0.53792 0.303,0 1.3785,-0.7266 2.3899,-1.61466 l 1.839,-1.61465 0.9266,1.41412 c 0.8862,1.35255 1.0746,1.39894 4.3272,1.0657 1.959,-0.2007 3.5336,-0.13338 3.7142,0.15877 0.1724,0.27895 2.0482,0.90174 4.1684,1.38398 3.2662,0.74288 5.9969,0.82552 17.88,0.5411 l 14.025,-0.33569 -2.7203,1.5486 c -5.4549,3.10531 -10.7269,6.94536 -14.593,10.62921 -2.175,2.07243 -4.4947,4.16339 -5.1549,4.64657 -1.192,0.87239 -1.2022,1.00753 -1.4693,19.36519 -0.1865,12.81553 -0.4641,18.81671 -0.9049,19.56252 -0.6163,1.04259 -1.2065,1.07584 -19.0962,1.07584 -10.1532,0 -19.3066,-0.0803 -20.3409,-0.17843 z m 9.1425,-17.31676 c 0,-0.23954 -0.3026,-0.57674 -0.6724,-0.74933 -0.5379,-0.25102 -0.5379,-0.37654 0,-0.62757 0.8256,-0.38526 0.8804,-5.8994 0.1116,-11.21894 -0.5492,-3.79971 -0.7969,-4.50237 -1.3813,-3.91799 -0.3726,0.37262 -0.1586,15.25054 0.2471,17.18208 0.1082,0.51483 1.695,-0.11078 1.695,-0.66825 z m 9.7251,-46.56233 c 0.026,-0.62666 0.1532,-0.75412 0.325,-0.325 0.1554,0.38831 0.1362,0.85227 -0.043,1.03102 -0.1787,0.17874 -0.3059,-0.13897 -0.2825,-0.70602 z m -1.0759,-87.68127 c 0.026,-0.62665 0.1533,-0.75411 0.325,-0.32499 0.1554,0.38831 0.1363,0.85227 -0.042,1.03102 -0.1788,0.17874 -0.3059,-0.13897 -0.2826,-0.70603 z m 0.093,-4.25855 c 0.01,-1.18342 0.1161,-1.60421 0.2448,-0.93509 0.1287,0.66913 0.1238,1.63739 -0.011,2.15169 -0.1346,0.5143 -0.2399,-0.0332 -0.2339,-1.2166 z m -0.2064,-4.61716 c -0.055,-1.0029 -0.3604,-23.63857 -0.4527,-33.51177 -0.01,-1.06327 -0.6059,-2.10803 -1.8972,-3.32589 -2.1634,-2.04032 -2.2848,-2.38581 -0.8386,-2.38581 2.1902,0 1.756,-1.91449 -0.5062,-2.23193 -0.7396,-0.10379 -1.2731,-0.43078 -1.1855,-0.72664 0.088,-0.29585 0.7726,-0.45755 1.5222,-0.35932 0.8552,0.11207 1.6299,-0.18649 2.0796,-0.80151 0.6742,-0.92202 0.7557,-0.89441 1.3756,0.46605 0.3624,0.79539 1.1704,1.51916 1.7955,1.60839 1.7255,0.24629 1.0448,1.26178 -0.721,1.07575 -1.7909,-0.18867 -2.4295,0.52235 -1.6964,1.88869 0.2843,0.52979 0.6865,1.44738 0.8938,2.03909 0.4586,1.309 0.4835,36.78306 0.026,37.24041 -0.1784,0.17846 -0.3563,-0.26052 -0.3952,-0.97551 z m -0.1613,-45.31608 c -0.6817,-0.49848 -0.8638,-1.06564 -0.6045,-1.88272 0.5326,-1.67792 1.1091,-1.44577 1.7718,0.71339 0.6224,2.02794 0.3627,2.2881 -1.1673,1.16933 z"
         id="path3138"
         inkscape:connector-curvature="0" />
    </g>
  </g>
</svg>
